<?xml version="1.0" encoding="UTF-8"?>
<svg id="Layer_1" data-name="Layer 1" xmlns="http://www.w3.org/2000/svg" viewBox="0 0 2689.2 1500.77">
  <path d="M2275.46,924.57c-25.24,116.91-38.7,148.15-156.02,148.15-60.35,0-116.33-9.88-116.33-76.28v-249.17h78.36c79.26,0,77.04,15.3,88.18,89.18h33.8v-222.39h-33.8c-11.14,68.67-8.92,89.18-88.18,89.18h-78.36v-298.97h145.56c87.71,0,99.37,43.76,121.54,150.01h38.32l-17.55-189.85H392.98l-17.55,189.85h38.32l5.15-24.25c12.32-46.4,16.56-125.58,107.93-125.71h120.22v491.91c0,140.56.14,178.35-48.08,177.25l-56.9,1.1v39.84h416.17v-39.84l-57.79-2.15c-42.78-4.15-25.93-35.64,17.69-176.2l8.03-27.29h251.99l9.82,27.29c46.49,135.53,64.17,175.11,17.69,176.2l-57.79,2.15v39.84h415.8v-39.84l-42.78-1.1c-44.51-4.2-42.83-26.19-42.83-166.75v-151.06l104.19,155.26c121.09,180.4,142.5,203.49,198.56,203.49h516.05l16.9-189.85h-38.32ZM864.66,909.87c-41.88,122.71-54.43,149.48-80.57,159.87-6.93,2.78-18.9,3.83-32.65,2.47-36.74-3.62-38.42-40.25-38.42-175.99v-491.91l325.79-.05-174.15,505.61ZM939.56,827l109.65-331.3,114.73,331.3h-224.38ZM1412.1,896.23c-1.93,127.29,7.87,176.5-42.94,176.5-3.86,0-10.73.31-15.35-.59-22.1-4.2-39.28-28-83.84-151.77l-186.8-516.11s210.81-3.76,280.86,1.05c49.26,3.38,48.08,41.99,48.08,182.55v308.36ZM1478.08,728.43v-324.16h85.5c114.84,0,170.85,65.84,170.85,165.75s-56,158.41-180.66,158.41h-75.69ZM1937.13,944.02c0,82.36.25,111.06-46.81,123.32-6.16,1.6-20.21,3.66-26.62,3.61-24.2-.26-44.75-2.56-63.91-14.22-55.22-33.59-113.08-110.17-168.24-188.85l-66.82-94.37c153.94,0,242.02-85.62,242.02-205.59,0-74.53-28.58-126.52-73.69-163.66,0,0,115.86-1.4,155.99,1.05,47.65,2.91,48.08,36.74,48.08,156.08v382.63Z"/>
</svg>