<?xml version="1.0" encoding="UTF-8"?>
<svg id="Layer_1" data-name="Layer 1" xmlns="http://www.w3.org/2000/svg" viewBox="0 0 2505.6 1265.94">
  <defs>
    <style>
      .cls-1 {
        fill: #fff;
      }
    </style>
  </defs>
  <path class="cls-1" d="M449.21,374.79v37.32h116.14c25.56,0,46.27,20.71,46.27,46.27v432.77h38.87v-432.77c0-25.56,20.72-46.27,46.27-46.27h189.99v-37.32h-437.53ZM374.58,412.11h37.32v-37.32h-37.32v37.32Z"/>
  <path class="cls-1" d="M1021.3,374.79l259.58,516.36h-40.42l-107.49-214.29c-7.85-15.65-23.85-25.52-41.36-25.52h-181.06c-17.5,0-33.51,9.88-41.36,25.52l-107.5,214.29h-40.4l259.58-516.36h40.42ZM1101.41,614.14l-88.24-174.97c-4.99-9.89-19.11-9.89-24.1,0l-88.31,174.97h200.65Z"/>
  <path class="cls-1" d="M1207.12,651.34l.33-276.55h291.75c114.13,0,166.61,58.77,166.61,138.28,0,72.92-43.32,119.31-113.73,133.45l122.81,244.63h-45.44l-97.47-193.85c-11.28-22.47-21.33-45.96-53.38-45.96h-271.49ZM1499.16,614.02c75.42,1.63,127.8-27.86,127.8-100.96s-49.33-100.96-119.7-100.96h-261.27v201.92h253.18Z"/>
  <path class="cls-1" d="M2093.71,891.15h37.3v-37.3h-37.3v37.3ZM1712.49,374.79v516.36h343.89v-37.3h-258.78c-25.54,0-46.27-20.71-46.27-46.27v-156.24h363.37v-37.19h-363.37v-155.76c0-25.56,20.72-46.27,46.27-46.27h333.41v-37.32h-418.52Z"/>
</svg>